# xmcd
#
# Track frame offsets:
#	150
#	16798
#	31317
#	47092
#	62373
#	81718
#	99347
#	117445
#
# Disc length: 1598 seconds
#
# Revision: 1
# Processed by: cddbd v1.5.2PL0 Copyright (c) Steve Scherf et al.
# Submitted via: audiograbber 1.83.01
#
DISCID=5d063c08
DTITLE=Various Artist - CDX Volume 585 (December 9, 2013)
DYEAR=2013
DGENRE=Country
TTITLE0=Blake Shelton - Doin' What She Likes 
TTITLE1=Kelleigh Bannen - Famous 
TTITLE2=Brad Paisley - The Mona Lisa [Radio Edit]
TTITLE3=Hannah Bethel - Medicine
TTITLE4=Bernie Nelson - Scarecrow
TTITLE5=Little River Band - You Dream I'll Drive [Radio Edit]
TTITLE6=Julie Ingram - One Chance 
TTITLE7=Lou Diamond Phillips - VFW PSA
EXTD=
EXTT0=
EXTT1=
EXTT2=
EXTT3=
EXTT4=
EXTT5=
EXTT6=
EXTT7=
PLAYORDER=
